<mxfile host="app.diagrams.net" agent="Mozilla/5.0 (Windows NT 10.0; Win64; x64) AppleWebKit/537.36 (KHTML, like Gecko) Chrome/132.0.0.0 Safari/537.36" version="26.0.11">
  <diagram name="Page-1" id="-jPc9ys-ye5YwTeEE8C4">
    <mxGraphModel dx="989" dy="509" grid="1" gridSize="10" guides="1" tooltips="1" connect="1" arrows="1" fold="1" page="1" pageScale="1" pageWidth="827" pageHeight="1169" math="0" shadow="0">
      <root>
        <mxCell id="0" />
        <mxCell id="1" parent="0" />
        <mxCell id="svaSZZneA0Ba_rGRArI8-1" value="" style="group" vertex="1" connectable="0" parent="1">
          <mxGeometry x="202" y="570" width="220" height="233" as="geometry" />
        </mxCell>
        <mxCell id="svaSZZneA0Ba_rGRArI8-2" value="40" style="rounded=0;whiteSpace=wrap;html=1;fontSize=20;align=center;fillColor=#fff2cc;startSize=20;strokeColor=#000000;" vertex="1" parent="svaSZZneA0Ba_rGRArI8-1">
          <mxGeometry width="40" height="40" as="geometry" />
        </mxCell>
        <mxCell id="svaSZZneA0Ba_rGRArI8-3" value="" style="endArrow=none;html=1;fontSize=12;rounded=0;" edge="1" parent="svaSZZneA0Ba_rGRArI8-1">
          <mxGeometry width="50" height="50" as="geometry">
            <mxPoint x="10" y="60" as="sourcePoint" />
            <mxPoint x="30" y="60" as="targetPoint" />
          </mxGeometry>
        </mxCell>
        <mxCell id="svaSZZneA0Ba_rGRArI8-4" value="Photo prise .&lt;span style=&quot;background-color: transparent; color: light-dark(rgb(0, 0, 0), rgb(255, 255, 255));&quot;&gt;&amp;nbsp;1sec/X30&lt;/span&gt;" style="text;html=1;strokeColor=none;fillColor=none;align=left;verticalAlign=middle;rounded=0;fontSize=12;startSize=20;" vertex="1" parent="svaSZZneA0Ba_rGRArI8-1">
          <mxGeometry x="40" y="50" width="40" height="20" as="geometry" />
        </mxCell>
        <mxCell id="svaSZZneA0Ba_rGRArI8-5" style="edgeStyle=none;rounded=0;orthogonalLoop=1;jettySize=auto;html=1;exitX=0.5;exitY=1;exitDx=0;exitDy=0;endArrow=none;endFill=0;fontSize=12;" edge="1" parent="svaSZZneA0Ba_rGRArI8-1" source="svaSZZneA0Ba_rGRArI8-2">
          <mxGeometry as="geometry">
            <mxPoint x="20" y="80" as="targetPoint" />
          </mxGeometry>
        </mxCell>
        <mxCell id="svaSZZneA0Ba_rGRArI8-6" style="edgeStyle=none;rounded=0;orthogonalLoop=1;jettySize=auto;html=1;exitX=1;exitY=0.5;exitDx=0;exitDy=0;fontSize=12;endArrow=none;endFill=0;entryX=0;entryY=0.5;entryDx=0;entryDy=0;" edge="1" parent="svaSZZneA0Ba_rGRArI8-1" source="svaSZZneA0Ba_rGRArI8-2">
          <mxGeometry as="geometry">
            <mxPoint x="58" y="20" as="targetPoint" />
          </mxGeometry>
        </mxCell>
        <mxCell id="svaSZZneA0Ba_rGRArI8-7" value="Prendre le capot en photo" style="text;html=1;fillColor=none;align=left;verticalAlign=middle;spacingLeft=4;spacingRight=4;whiteSpace=wrap;overflow=hidden;rotatable=0;points=[[0,0.5],[1,0.5]];portConstraint=eastwest;fontSize=10;spacing=0;strokeColor=#000000;container=0;" vertex="1" parent="svaSZZneA0Ba_rGRArI8-1">
          <mxGeometry x="58" y="10" width="150" height="20" as="geometry" />
        </mxCell>
        <mxCell id="svaSZZneA0Ba_rGRArI8-8" value="" style="group" vertex="1" connectable="0" parent="svaSZZneA0Ba_rGRArI8-1">
          <mxGeometry y="80" width="220" height="153" as="geometry" />
        </mxCell>
        <mxCell id="svaSZZneA0Ba_rGRArI8-9" value="50" style="rounded=0;whiteSpace=wrap;html=1;fontSize=20;align=center;fillColor=#fff2cc;startSize=20;strokeColor=#000000;" vertex="1" parent="svaSZZneA0Ba_rGRArI8-8">
          <mxGeometry width="40" height="40" as="geometry" />
        </mxCell>
        <mxCell id="svaSZZneA0Ba_rGRArI8-10" value="" style="endArrow=none;html=1;fontSize=12;rounded=0;" edge="1" parent="svaSZZneA0Ba_rGRArI8-8">
          <mxGeometry width="50" height="50" as="geometry">
            <mxPoint x="10" y="60" as="sourcePoint" />
            <mxPoint x="30" y="60" as="targetPoint" />
          </mxGeometry>
        </mxCell>
        <mxCell id="svaSZZneA0Ba_rGRArI8-11" value="Informations lu et enregistrée . 0.6sec/X40" style="text;html=1;strokeColor=none;fillColor=none;align=left;verticalAlign=middle;rounded=0;fontSize=12;startSize=20;" vertex="1" parent="svaSZZneA0Ba_rGRArI8-8">
          <mxGeometry x="40" y="50" width="40" height="20" as="geometry" />
        </mxCell>
        <mxCell id="svaSZZneA0Ba_rGRArI8-12" style="edgeStyle=orthogonalEdgeStyle;rounded=0;orthogonalLoop=1;jettySize=auto;html=1;exitX=0.5;exitY=1;exitDx=0;exitDy=0;endArrow=none;endFill=0;fontSize=12;curved=1;" edge="1" parent="svaSZZneA0Ba_rGRArI8-8" source="svaSZZneA0Ba_rGRArI8-9">
          <mxGeometry as="geometry">
            <mxPoint x="20" y="80" as="targetPoint" />
          </mxGeometry>
        </mxCell>
        <mxCell id="svaSZZneA0Ba_rGRArI8-13" style="edgeStyle=none;rounded=0;orthogonalLoop=1;jettySize=auto;html=1;exitX=1;exitY=0.5;exitDx=0;exitDy=0;fontSize=12;endArrow=none;endFill=0;entryX=0;entryY=0.5;entryDx=0;entryDy=0;" edge="1" parent="svaSZZneA0Ba_rGRArI8-8" source="svaSZZneA0Ba_rGRArI8-9">
          <mxGeometry as="geometry">
            <mxPoint x="58" y="20" as="targetPoint" />
          </mxGeometry>
        </mxCell>
        <mxCell id="svaSZZneA0Ba_rGRArI8-14" value="Lecture/Ecriture sur le badge RFID" style="text;html=1;fillColor=none;align=left;verticalAlign=middle;spacingLeft=4;spacingRight=4;whiteSpace=wrap;overflow=hidden;rotatable=0;points=[[0,0.5],[1,0.5]];portConstraint=eastwest;fontSize=10;spacing=0;strokeColor=#000000;container=0;" vertex="1" parent="svaSZZneA0Ba_rGRArI8-8">
          <mxGeometry x="58" y="10" width="162" height="20" as="geometry" />
        </mxCell>
        <mxCell id="svaSZZneA0Ba_rGRArI8-15" value="" style="group" vertex="1" connectable="0" parent="svaSZZneA0Ba_rGRArI8-8">
          <mxGeometry x="-2" y="73" width="210" height="80" as="geometry" />
        </mxCell>
        <mxCell id="svaSZZneA0Ba_rGRArI8-16" value="60" style="rounded=0;whiteSpace=wrap;html=1;fontSize=20;align=center;fillColor=#fff2cc;startSize=20;strokeColor=#000000;" vertex="1" parent="svaSZZneA0Ba_rGRArI8-15">
          <mxGeometry width="40" height="40" as="geometry" />
        </mxCell>
        <mxCell id="svaSZZneA0Ba_rGRArI8-17" value="" style="endArrow=none;html=1;fontSize=12;rounded=0;" edge="1" parent="svaSZZneA0Ba_rGRArI8-15">
          <mxGeometry width="50" height="50" as="geometry">
            <mxPoint x="10" y="60" as="sourcePoint" />
            <mxPoint x="30" y="60" as="targetPoint" />
          </mxGeometry>
        </mxCell>
        <mxCell id="svaSZZneA0Ba_rGRArI8-18" value=" ¬ C2" style="text;html=1;strokeColor=none;fillColor=none;align=left;verticalAlign=middle;rounded=0;fontSize=12;startSize=20;" vertex="1" parent="svaSZZneA0Ba_rGRArI8-15">
          <mxGeometry x="40" y="50" width="40" height="20" as="geometry" />
        </mxCell>
        <mxCell id="svaSZZneA0Ba_rGRArI8-19" style="edgeStyle=orthogonalEdgeStyle;rounded=0;orthogonalLoop=1;jettySize=auto;html=1;exitX=0.5;exitY=1;exitDx=0;exitDy=0;endArrow=none;endFill=0;fontSize=12;curved=1;" edge="1" parent="svaSZZneA0Ba_rGRArI8-15" source="svaSZZneA0Ba_rGRArI8-16">
          <mxGeometry as="geometry">
            <mxPoint x="20" y="80" as="targetPoint" />
          </mxGeometry>
        </mxCell>
        <mxCell id="svaSZZneA0Ba_rGRArI8-20" style="edgeStyle=none;rounded=0;orthogonalLoop=1;jettySize=auto;html=1;exitX=1;exitY=0.5;exitDx=0;exitDy=0;fontSize=12;endArrow=none;endFill=0;entryX=0;entryY=0.5;entryDx=0;entryDy=0;" edge="1" parent="svaSZZneA0Ba_rGRArI8-15" source="svaSZZneA0Ba_rGRArI8-16">
          <mxGeometry as="geometry">
            <mxPoint x="58" y="20" as="targetPoint" />
          </mxGeometry>
        </mxCell>
        <mxCell id="svaSZZneA0Ba_rGRArI8-21" value="Appeler le bras manipulateur" style="text;html=1;fillColor=none;align=left;verticalAlign=middle;spacingLeft=4;spacingRight=4;whiteSpace=wrap;overflow=hidden;rotatable=0;points=[[0,0.5],[1,0.5]];portConstraint=eastwest;fontSize=10;spacing=0;strokeColor=#000000;container=0;" vertex="1" parent="svaSZZneA0Ba_rGRArI8-15">
          <mxGeometry x="58" y="10" width="150" height="20" as="geometry" />
        </mxCell>
        <mxCell id="svaSZZneA0Ba_rGRArI8-22" value="" style="group" vertex="1" connectable="0" parent="1">
          <mxGeometry x="202" y="417" width="210" height="80" as="geometry" />
        </mxCell>
        <mxCell id="svaSZZneA0Ba_rGRArI8-23" value="20" style="rounded=0;whiteSpace=wrap;html=1;fontSize=20;align=center;fillColor=#fff2cc;startSize=20;strokeColor=#000000;" vertex="1" parent="svaSZZneA0Ba_rGRArI8-22">
          <mxGeometry width="40" height="40" as="geometry" />
        </mxCell>
        <mxCell id="svaSZZneA0Ba_rGRArI8-24" value="" style="endArrow=none;html=1;fontSize=12;rounded=0;" edge="1" parent="svaSZZneA0Ba_rGRArI8-22">
          <mxGeometry width="50" height="50" as="geometry">
            <mxPoint x="10" y="60" as="sourcePoint" />
            <mxPoint x="30" y="60" as="targetPoint" />
          </mxGeometry>
        </mxCell>
        <mxCell id="svaSZZneA0Ba_rGRArI8-25" value="Tête d&#39;encollage dégagée" style="text;html=1;strokeColor=none;fillColor=none;align=left;verticalAlign=middle;rounded=0;fontSize=12;startSize=20;" vertex="1" parent="svaSZZneA0Ba_rGRArI8-22">
          <mxGeometry x="40" y="50" width="40" height="20" as="geometry" />
        </mxCell>
        <mxCell id="svaSZZneA0Ba_rGRArI8-26" style="edgeStyle=none;rounded=0;orthogonalLoop=1;jettySize=auto;html=1;exitX=0.5;exitY=1;exitDx=0;exitDy=0;endArrow=none;endFill=0;fontSize=12;" edge="1" parent="svaSZZneA0Ba_rGRArI8-22" source="svaSZZneA0Ba_rGRArI8-23">
          <mxGeometry as="geometry">
            <mxPoint x="20" y="80" as="targetPoint" />
          </mxGeometry>
        </mxCell>
        <mxCell id="svaSZZneA0Ba_rGRArI8-27" style="edgeStyle=none;rounded=0;orthogonalLoop=1;jettySize=auto;html=1;exitX=1;exitY=0.5;exitDx=0;exitDy=0;fontSize=12;endArrow=none;endFill=0;entryX=0;entryY=0.5;entryDx=0;entryDy=0;" edge="1" parent="svaSZZneA0Ba_rGRArI8-22" source="svaSZZneA0Ba_rGRArI8-23">
          <mxGeometry as="geometry">
            <mxPoint x="58" y="20" as="targetPoint" />
          </mxGeometry>
        </mxCell>
        <mxCell id="svaSZZneA0Ba_rGRArI8-28" value="Dégager la tête de l&#39;encollage" style="text;html=1;fillColor=none;align=left;verticalAlign=middle;spacingLeft=4;spacingRight=4;whiteSpace=wrap;overflow=hidden;rotatable=0;points=[[0,0.5],[1,0.5]];portConstraint=eastwest;fontSize=10;spacing=0;strokeColor=#000000;container=0;" vertex="1" parent="svaSZZneA0Ba_rGRArI8-22">
          <mxGeometry x="58" y="10" width="150" height="20" as="geometry" />
        </mxCell>
        <mxCell id="svaSZZneA0Ba_rGRArI8-29" value="" style="group" vertex="1" connectable="0" parent="1">
          <mxGeometry x="200" y="340" width="208" height="80" as="geometry" />
        </mxCell>
        <mxCell id="svaSZZneA0Ba_rGRArI8-30" value="10" style="rounded=0;whiteSpace=wrap;html=1;fontSize=20;align=center;fillColor=#fff2cc;startSize=20;strokeColor=#000000;" vertex="1" parent="svaSZZneA0Ba_rGRArI8-29">
          <mxGeometry width="40" height="40" as="geometry" />
        </mxCell>
        <mxCell id="svaSZZneA0Ba_rGRArI8-31" value="" style="endArrow=none;html=1;fontSize=12;rounded=0;" edge="1" parent="svaSZZneA0Ba_rGRArI8-29">
          <mxGeometry x="252" y="310" width="50" height="50" as="geometry">
            <mxPoint x="10" y="60" as="sourcePoint" />
            <mxPoint x="30" y="60" as="targetPoint" />
          </mxGeometry>
        </mxCell>
        <mxCell id="svaSZZneA0Ba_rGRArI8-32" value="Encollage terminé" style="text;html=1;strokeColor=none;fillColor=none;align=left;verticalAlign=middle;rounded=0;fontSize=12;startSize=20;" vertex="1" parent="svaSZZneA0Ba_rGRArI8-29">
          <mxGeometry x="40" y="50" width="80" height="20" as="geometry" />
        </mxCell>
        <mxCell id="svaSZZneA0Ba_rGRArI8-33" style="edgeStyle=none;rounded=0;orthogonalLoop=1;jettySize=auto;html=1;exitX=0.5;exitY=1;exitDx=0;exitDy=0;endArrow=none;endFill=0;fontSize=12;" edge="1" parent="svaSZZneA0Ba_rGRArI8-29" source="svaSZZneA0Ba_rGRArI8-30">
          <mxGeometry x="252" y="310" as="geometry">
            <mxPoint x="20" y="80" as="targetPoint" />
          </mxGeometry>
        </mxCell>
        <mxCell id="svaSZZneA0Ba_rGRArI8-34" style="edgeStyle=none;rounded=0;orthogonalLoop=1;jettySize=auto;html=1;exitX=1;exitY=0.5;exitDx=0;exitDy=0;fontSize=12;endArrow=none;endFill=0;entryX=0;entryY=0.5;entryDx=0;entryDy=0;" edge="1" parent="svaSZZneA0Ba_rGRArI8-29" source="svaSZZneA0Ba_rGRArI8-30">
          <mxGeometry x="252" y="310" as="geometry">
            <mxPoint x="58" y="20" as="targetPoint" />
          </mxGeometry>
        </mxCell>
        <mxCell id="svaSZZneA0Ba_rGRArI8-35" value="Encoller le capot" style="text;html=1;fillColor=none;align=left;verticalAlign=middle;spacingLeft=4;spacingRight=4;whiteSpace=wrap;overflow=hidden;rotatable=0;points=[[0,0.5],[1,0.5]];portConstraint=eastwest;fontSize=10;spacing=0;strokeColor=#000000;container=0;" vertex="1" parent="svaSZZneA0Ba_rGRArI8-29">
          <mxGeometry x="58" y="10" width="150" height="20" as="geometry" />
        </mxCell>
        <mxCell id="svaSZZneA0Ba_rGRArI8-36" value="" style="group" vertex="1" connectable="0" parent="1">
          <mxGeometry x="250" y="270" width="364" height="80" as="geometry" />
        </mxCell>
        <mxCell id="svaSZZneA0Ba_rGRArI8-37" value="" style="group" vertex="1" connectable="0" parent="svaSZZneA0Ba_rGRArI8-36">
          <mxGeometry x="-50" y="-10" width="212" height="80" as="geometry" />
        </mxCell>
        <mxCell id="svaSZZneA0Ba_rGRArI8-38" value="" style="rounded=0;whiteSpace=wrap;html=1;fontSize=20;align=center;fillColor=#97D077;container=0;" vertex="1" parent="svaSZZneA0Ba_rGRArI8-37">
          <mxGeometry width="40" height="40" as="geometry" />
        </mxCell>
        <mxCell id="svaSZZneA0Ba_rGRArI8-39" value="0" style="rounded=0;whiteSpace=wrap;html=1;fontSize=20;align=center;gradientColor=#97d077;fillColor=none;imageWidth=20;imageHeight=20;container=0;" vertex="1" parent="svaSZZneA0Ba_rGRArI8-37">
          <mxGeometry x="2" y="2" width="36" height="36" as="geometry" />
        </mxCell>
        <mxCell id="svaSZZneA0Ba_rGRArI8-40" value="" style="endArrow=none;html=1;fontSize=12;rounded=0;" edge="1" parent="svaSZZneA0Ba_rGRArI8-37">
          <mxGeometry width="50" height="50" as="geometry">
            <mxPoint x="10" y="60" as="sourcePoint" />
            <mxPoint x="30" y="60" as="targetPoint" />
          </mxGeometry>
        </mxCell>
        <mxCell id="svaSZZneA0Ba_rGRArI8-41" value="C1 . C2 . C3" style="text;html=1;strokeColor=none;fillColor=none;align=left;verticalAlign=middle;rounded=0;fontSize=12;container=0;" vertex="1" parent="svaSZZneA0Ba_rGRArI8-37">
          <mxGeometry x="40" y="50" width="40" height="20" as="geometry" />
        </mxCell>
        <mxCell id="svaSZZneA0Ba_rGRArI8-42" style="edgeStyle=none;rounded=0;orthogonalLoop=1;jettySize=auto;html=1;exitX=0.5;exitY=1;exitDx=0;exitDy=0;endArrow=none;endFill=0;fontSize=12;" edge="1" parent="svaSZZneA0Ba_rGRArI8-37" source="svaSZZneA0Ba_rGRArI8-38">
          <mxGeometry as="geometry">
            <mxPoint x="20" y="80" as="targetPoint" />
          </mxGeometry>
        </mxCell>
        <mxCell id="svaSZZneA0Ba_rGRArI8-43" value="" style="endArrow=none;html=1;fontSize=12;exitX=1;exitY=0.5;exitDx=0;exitDy=0;entryX=0;entryY=0.5;entryDx=0;entryDy=0;rounded=0;" edge="1" parent="svaSZZneA0Ba_rGRArI8-37" source="svaSZZneA0Ba_rGRArI8-38" target="svaSZZneA0Ba_rGRArI8-45">
          <mxGeometry x="40" y="-70" width="50" height="50" as="geometry">
            <mxPoint x="50" y="-10" as="sourcePoint" />
            <mxPoint x="50" y="20" as="targetPoint" />
          </mxGeometry>
        </mxCell>
        <mxCell id="svaSZZneA0Ba_rGRArI8-44" value="" style="group" vertex="1" connectable="0" parent="svaSZZneA0Ba_rGRArI8-37">
          <mxGeometry x="60" y="10" width="152" height="51" as="geometry" />
        </mxCell>
        <mxCell id="svaSZZneA0Ba_rGRArI8-45" value="" style="rounded=0;whiteSpace=wrap;html=1;startSize=20;strokeColor=#000000;strokeWidth=1;fillColor=#000000;" vertex="1" parent="svaSZZneA0Ba_rGRArI8-44">
          <mxGeometry y="9" width="2" height="2" as="geometry" />
        </mxCell>
        <mxCell id="svaSZZneA0Ba_rGRArI8-46" value="" style="group" vertex="1" connectable="0" parent="svaSZZneA0Ba_rGRArI8-44">
          <mxGeometry width="152" height="40" as="geometry" />
        </mxCell>
        <mxCell id="svaSZZneA0Ba_rGRArI8-47" value="" style="rounded=0;whiteSpace=wrap;html=1;startSize=20;strokeColor=#000000;strokeWidth=1;fillColor=#000000;" vertex="1" parent="svaSZZneA0Ba_rGRArI8-46">
          <mxGeometry y="9" width="2" height="2" as="geometry" />
        </mxCell>
        <mxCell id="svaSZZneA0Ba_rGRArI8-48" value="Attente" style="text;html=1;fillColor=none;align=left;verticalAlign=middle;spacingLeft=4;spacingRight=4;whiteSpace=wrap;overflow=hidden;rotatable=0;points=[[0,0.5],[1,0.5]];portConstraint=eastwest;fontSize=10;spacing=0;strokeColor=#000000;container=0;" vertex="1" parent="svaSZZneA0Ba_rGRArI8-46">
          <mxGeometry width="150" height="20" as="geometry" />
        </mxCell>
        <mxCell id="svaSZZneA0Ba_rGRArI8-49" value="Appel le bras manipulateur" style="text;html=1;fillColor=none;align=left;verticalAlign=middle;spacingLeft=4;spacingRight=4;whiteSpace=wrap;overflow=hidden;rotatable=0;points=[[0,0.5],[1,0.5]];portConstraint=eastwest;fontSize=10;spacing=0;strokeColor=#000000;container=0;" vertex="1" parent="svaSZZneA0Ba_rGRArI8-36">
          <mxGeometry x="160" width="150" height="20" as="geometry" />
        </mxCell>
        <mxCell id="svaSZZneA0Ba_rGRArI8-50" value="Assets" style="childLayout=tableLayout;recursiveResize=0;strokeColor=#98bf21;fillColor=#A7C942;shadow=1;" vertex="1" parent="1">
          <mxGeometry x="470" y="410" width="410" height="212" as="geometry" />
        </mxCell>
        <mxCell id="svaSZZneA0Ba_rGRArI8-51" style="shape=tableRow;horizontal=0;startSize=0;swimlaneHead=0;swimlaneBody=0;top=0;left=0;bottom=0;right=0;dropTarget=0;collapsible=0;recursiveResize=0;expand=0;fontStyle=0;strokeColor=inherit;fillColor=#ffffff;" vertex="1" parent="svaSZZneA0Ba_rGRArI8-50">
          <mxGeometry width="410" height="54" as="geometry" />
        </mxCell>
        <mxCell id="svaSZZneA0Ba_rGRArI8-52" value="Variable" style="connectable=0;recursiveResize=0;strokeColor=inherit;fillColor=#A7C942;align=center;fontStyle=1;fontColor=#FFFFFF;html=1;" vertex="1" parent="svaSZZneA0Ba_rGRArI8-51">
          <mxGeometry width="205" height="54" as="geometry">
            <mxRectangle width="205" height="54" as="alternateBounds" />
          </mxGeometry>
        </mxCell>
        <mxCell id="svaSZZneA0Ba_rGRArI8-53" value="Description" style="connectable=0;recursiveResize=0;strokeColor=inherit;fillColor=#A7C942;align=center;fontStyle=1;fontColor=#FFFFFF;html=1;" vertex="1" parent="svaSZZneA0Ba_rGRArI8-51">
          <mxGeometry x="205" width="205" height="54" as="geometry">
            <mxRectangle width="205" height="54" as="alternateBounds" />
          </mxGeometry>
        </mxCell>
        <mxCell id="svaSZZneA0Ba_rGRArI8-54" value="" style="shape=tableRow;horizontal=0;startSize=0;swimlaneHead=0;swimlaneBody=0;top=0;left=0;bottom=0;right=0;dropTarget=0;collapsible=0;recursiveResize=0;expand=0;fontStyle=0;strokeColor=inherit;fillColor=#ffffff;" vertex="1" parent="svaSZZneA0Ba_rGRArI8-50">
          <mxGeometry y="54" width="410" height="56" as="geometry" />
        </mxCell>
        <mxCell id="svaSZZneA0Ba_rGRArI8-55" value="C1" style="connectable=0;recursiveResize=0;strokeColor=inherit;fillColor=inherit;align=center;whiteSpace=wrap;html=1;" vertex="1" parent="svaSZZneA0Ba_rGRArI8-54">
          <mxGeometry width="205" height="56" as="geometry">
            <mxRectangle width="205" height="56" as="alternateBounds" />
          </mxGeometry>
        </mxCell>
        <mxCell id="svaSZZneA0Ba_rGRArI8-56" value="Colle en quantitée suffisante dans a seringue" style="connectable=0;recursiveResize=0;strokeColor=inherit;fillColor=inherit;align=center;whiteSpace=wrap;html=1;" vertex="1" parent="svaSZZneA0Ba_rGRArI8-54">
          <mxGeometry x="205" width="205" height="56" as="geometry">
            <mxRectangle width="205" height="56" as="alternateBounds" />
          </mxGeometry>
        </mxCell>
        <mxCell id="svaSZZneA0Ba_rGRArI8-57" value="" style="shape=tableRow;horizontal=0;startSize=0;swimlaneHead=0;swimlaneBody=0;top=0;left=0;bottom=0;right=0;dropTarget=0;collapsible=0;recursiveResize=0;expand=0;fontStyle=1;strokeColor=inherit;fillColor=#EAF2D3;" vertex="1" parent="svaSZZneA0Ba_rGRArI8-50">
          <mxGeometry y="110" width="410" height="51" as="geometry" />
        </mxCell>
        <mxCell id="svaSZZneA0Ba_rGRArI8-58" value="C2" style="connectable=0;recursiveResize=0;strokeColor=inherit;fillColor=inherit;whiteSpace=wrap;html=1;" vertex="1" parent="svaSZZneA0Ba_rGRArI8-57">
          <mxGeometry width="205" height="51" as="geometry">
            <mxRectangle width="205" height="51" as="alternateBounds" />
          </mxGeometry>
        </mxCell>
        <mxCell id="svaSZZneA0Ba_rGRArI8-59" value="Capot placé" style="connectable=0;recursiveResize=0;strokeColor=inherit;fillColor=inherit;whiteSpace=wrap;html=1;" vertex="1" parent="svaSZZneA0Ba_rGRArI8-57">
          <mxGeometry x="205" width="205" height="51" as="geometry">
            <mxRectangle width="205" height="51" as="alternateBounds" />
          </mxGeometry>
        </mxCell>
        <mxCell id="svaSZZneA0Ba_rGRArI8-73" style="shape=tableRow;horizontal=0;startSize=0;swimlaneHead=0;swimlaneBody=0;top=0;left=0;bottom=0;right=0;dropTarget=0;collapsible=0;recursiveResize=0;expand=0;fontStyle=1;strokeColor=inherit;fillColor=#EAF2D3;" vertex="1" parent="svaSZZneA0Ba_rGRArI8-50">
          <mxGeometry y="161" width="410" height="51" as="geometry" />
        </mxCell>
        <mxCell id="svaSZZneA0Ba_rGRArI8-74" value="C3" style="connectable=0;recursiveResize=0;whiteSpace=wrap;html=1;strokeColor=#97D077;" vertex="1" parent="svaSZZneA0Ba_rGRArI8-73">
          <mxGeometry width="205" height="51" as="geometry">
            <mxRectangle width="205" height="51" as="alternateBounds" />
          </mxGeometry>
        </mxCell>
        <mxCell id="svaSZZneA0Ba_rGRArI8-75" value="Pla&lt;span style=&quot;text-align: left; text-wrap-mode: nowrap;&quot;&gt;t&lt;/span&gt;eau bien placé&amp;nbsp;" style="connectable=0;recursiveResize=0;whiteSpace=wrap;html=1;strokeColor=#97D077;" vertex="1" parent="svaSZZneA0Ba_rGRArI8-73">
          <mxGeometry x="205" width="205" height="51" as="geometry">
            <mxRectangle width="205" height="51" as="alternateBounds" />
          </mxGeometry>
        </mxCell>
        <mxCell id="svaSZZneA0Ba_rGRArI8-60" style="edgeStyle=orthogonalEdgeStyle;rounded=0;orthogonalLoop=1;jettySize=auto;html=1;entryX=0;entryY=0.5;entryDx=0;entryDy=0;" edge="1" parent="1" source="svaSZZneA0Ba_rGRArI8-16" target="svaSZZneA0Ba_rGRArI8-39">
          <mxGeometry relative="1" as="geometry">
            <Array as="points">
              <mxPoint x="220" y="810" />
              <mxPoint x="180" y="810" />
              <mxPoint x="180" y="280" />
            </Array>
          </mxGeometry>
        </mxCell>
        <mxCell id="svaSZZneA0Ba_rGRArI8-61" value="Graphset de l&#39;encolleuse" style="rounded=0;whiteSpace=wrap;html=1;" vertex="1" parent="1">
          <mxGeometry x="180" y="180" width="740" height="60" as="geometry" />
        </mxCell>
        <mxCell id="svaSZZneA0Ba_rGRArI8-66" value="" style="group" vertex="1" connectable="0" parent="1">
          <mxGeometry x="204" y="490" width="210" height="80" as="geometry" />
        </mxCell>
        <mxCell id="svaSZZneA0Ba_rGRArI8-67" value="30" style="rounded=0;whiteSpace=wrap;html=1;fontSize=20;align=center;fillColor=#fff2cc;startSize=20;strokeColor=#000000;" vertex="1" parent="svaSZZneA0Ba_rGRArI8-66">
          <mxGeometry width="40" height="40" as="geometry" />
        </mxCell>
        <mxCell id="svaSZZneA0Ba_rGRArI8-68" value="" style="endArrow=none;html=1;fontSize=12;rounded=0;" edge="1" parent="svaSZZneA0Ba_rGRArI8-66">
          <mxGeometry width="50" height="50" as="geometry">
            <mxPoint x="10" y="60" as="sourcePoint" />
            <mxPoint x="30" y="60" as="targetPoint" />
          </mxGeometry>
        </mxCell>
        <mxCell id="svaSZZneA0Ba_rGRArI8-70" style="edgeStyle=none;rounded=0;orthogonalLoop=1;jettySize=auto;html=1;exitX=0.5;exitY=1;exitDx=0;exitDy=0;endArrow=none;endFill=0;fontSize=12;" edge="1" parent="svaSZZneA0Ba_rGRArI8-66" source="svaSZZneA0Ba_rGRArI8-67">
          <mxGeometry as="geometry">
            <mxPoint x="20" y="80" as="targetPoint" />
          </mxGeometry>
        </mxCell>
        <mxCell id="svaSZZneA0Ba_rGRArI8-71" style="edgeStyle=none;rounded=0;orthogonalLoop=1;jettySize=auto;html=1;exitX=1;exitY=0.5;exitDx=0;exitDy=0;fontSize=12;endArrow=none;endFill=0;entryX=0;entryY=0.5;entryDx=0;entryDy=0;" edge="1" parent="svaSZZneA0Ba_rGRArI8-66" source="svaSZZneA0Ba_rGRArI8-67">
          <mxGeometry as="geometry">
            <mxPoint x="58" y="20" as="targetPoint" />
          </mxGeometry>
        </mxCell>
        <mxCell id="svaSZZneA0Ba_rGRArI8-72" value="&lt;span style=&quot;font-size: 12px; text-wrap-mode: nowrap;&quot;&gt;transla&lt;/span&gt;&lt;span style=&quot;font-size: 12px; text-wrap-mode: nowrap;&quot;&gt;tion&amp;nbsp;&lt;/span&gt;&lt;span style=&quot;font-size: 12px; text-wrap-mode: nowrap;&quot;&gt;du pla&lt;/span&gt;&lt;span style=&quot;font-size: 12px; text-wrap-mode: nowrap;&quot;&gt;teau&lt;/span&gt;" style="text;html=1;fillColor=none;align=left;verticalAlign=middle;spacingLeft=4;spacingRight=4;whiteSpace=wrap;overflow=hidden;rotatable=0;points=[[0,0.5],[1,0.5]];portConstraint=eastwest;fontSize=10;spacing=0;strokeColor=#000000;container=0;" vertex="1" parent="svaSZZneA0Ba_rGRArI8-66">
          <mxGeometry x="58" y="10" width="150" height="20" as="geometry" />
        </mxCell>
        <mxCell id="svaSZZneA0Ba_rGRArI8-85" value="Pla&lt;span style=&quot;color: rgba(0, 0, 0, 0); font-family: monospace; font-size: 0px;&quot;&gt;% 3CmxGraphModel%3E%3Croot%3E%3CmxCell%20id%3D%220%22%2F%3E%3CmxCell%20id%3D%221%22%20parent%3D%220%22%2F%3E%3CmxCell%20id%3D%222%22%20value%3D%22T%C3%AAte%20d&#39;encollage%20d%C3%A9gag%C3%A9e%22%20style%3D%22text%3Bhtml%3D1%3BstrokeColor%3Dnone%3BfillColor%3Dnone%3Balign%3Dleft%3BverticalAlign%3Dmiddle%3Brounded%3D0%3BfontSize%3D12%3BstartSize%3D20%3B%22%20vertex%3D%221%22%20parent%3D%221%22%3E%3CmxGeometry%20x%3D%22242%22%20y%3D%22467%22%20width%3D%2240%22%20height%3D%2220%22%20as%3D%22geometry%22%2F%3E%3C%2FmxCell%3E%3C%2Froot%3E%3C%2FmxGraphModel%3E&lt;/span&gt;&lt;span style=&quot;color: rgba(0, 0, 0, 0); font-family: monospace; font-size: 0px;&quot;&gt;%3CmxGraphModel%3E%3Croot%3E%3CmxCell%20id%3D%220%22%2F%3E%3CmxCell%20id%3D%221%22%20parent%3D%220%22%2F%3E%3CmxCell%20id%3D%222%22%20value%3D%22T%C3%AAte%20d&#39;encollage%20d%C3%A9gag%C3%A9e%22%20style%3D%22text%3Bhtml%3D1%3BstrokeColor%3Dnone%3BfillColor%3Dnone%3Balign%3Dleft%3BverticalAlign%3Dmiddle%3Brounded%3D0%3BfontSize%3D12%3BstartSize%3D20%3B%22%20vertex%3D%221%22%20parent%3D%221%22%3E%3CmxGeometry%20x%3D%22242%22%20y%3D%22467%22%20width%3D%2240%22%20height%3D%2220%22%20as%3D%22geometry%22%2F%3E%3C%2FmxCell%3E%3C%2Froot%3E%3C%2FmxGraphModel%3E&lt;/span&gt;teau positionné&amp;nbsp;" style="text;html=1;strokeColor=none;fillColor=none;align=left;verticalAlign=middle;rounded=0;fontSize=12;startSize=20;" vertex="1" parent="svaSZZneA0Ba_rGRArI8-66">
          <mxGeometry x="48" y="50" width="72" height="20" as="geometry" />
        </mxCell>
      </root>
    </mxGraphModel>
  </diagram>
</mxfile>
